<?xml version="1.0" standalone="no"?>
<!DOCTYPE svg PUBLIC "-//W3C//DTD SVG 20010904//EN"
 "http://www.w3.org/TR/2001/REC-SVG-20010904/DTD/svg10.dtd">
<svg version="1.0" xmlns="http://www.w3.org/2000/svg"
 width="1024.000000pt" height="1024.000000pt" viewBox="0 0 1024.000000 1024.000000"
 preserveAspectRatio="xMidYMid meet">
<metadata>
Created by potrace 1.14, written by Peter Selinger 2001-2017
</metadata>
<g transform="translate(0.000000,1024.000000) scale(0.100000,-0.100000)"
fill="#000000" stroke="none">
<path d="M4975 9300 c-371 -20 -753 -100 -937 -197 -163 -85 -200 -213 -93
-317 145 -141 507 -230 1080 -266 395 -25 882 9 1249 86 251 53 422 145 462
249 77 202 -272 364 -926 430 -176 18 -630 26 -835 15z m815 -205 c177 -21
387 -59 494 -90 93 -27 209 -76 220 -93 17 -27 -146 -89 -333 -127 -282 -57
-437 -70 -841 -70 -385 0 -510 8 -743 46 -150 24 -258 52 -355 90 -79 32 -102
45 -102 60 0 12 103 62 180 87 130 43 420 92 660 112 157 13 662 4 820 -15z"/>
<path d="M4980 8205 c-25 -8 -71 -30 -104 -50 l-58 -35 -577 0 c-633 0 -645
-1 -763 -61 -69 -35 -151 -112 -191 -179 -55 -95 -57 -118 -57 -687 0 -288 -2
-523 -5 -523 -2 0 -24 19 -47 43 -89 88 -217 133 -354 125 -189 -11 -323 -149
-324 -333 0 -28 7 -105 16 -170 21 -159 15 -356 -14 -437 -11 -31 -77 -166
-145 -300 -224 -435 -301 -650 -372 -1033 -38 -207 -43 -386 -16 -605 27 -216
69 -500 115 -770 l35 -205 -102 -100 c-56 -55 -166 -158 -245 -229 l-142 -128
0 -52 c0 -28 7 -94 15 -146 67 -413 331 -774 836 -1142 391 -285 826 -480
1249 -558 108 -20 132 -21 252 -8 9 1 16 7 15 13 -1 5 4 9 11 7 8 -1 11 1 8 6
-3 5 15 28 39 52 40 39 46 42 62 29 17 -13 17 -13 4 4 -14 17 -10 23 40 72 37
37 58 50 66 43 8 -6 10 -4 7 9 -6 24 65 98 80 83 7 -7 6 -14 -3 -23 -10 -10
-11 -8 -5 8 7 20 7 20 -14 1 -16 -14 -20 -26 -16 -40 6 -18 5 -19 -10 -7 -9 7
-16 9 -16 3 0 -5 14 -15 31 -21 31 -11 31 -11 16 13 -19 28 -10 44 10 18 10
-14 12 -14 8 -1 -7 19 5 29 65 54 25 10 52 25 60 34 9 9 36 18 64 20 41 2 56
9 83 38 20 20 40 32 48 29 8 -3 47 5 87 18 40 13 77 22 84 19 7 -2 15 0 19 6
3 6 24 11 45 11 29 0 42 5 50 20 6 11 22 23 35 26 14 3 25 10 25 15 0 10 53
34 117 54 23 8 51 23 62 34 l20 20 -22 4 c-12 2 -6 4 13 3 19 -1 38 -5 43 -11
5 -6 12 -4 20 5 22 27 66 50 97 50 16 0 30 5 30 11 0 8 17 9 54 5 40 -4 55 -2
59 8 8 20 94 46 154 46 40 0 53 4 53 15 0 8 -5 15 -11 15 -8 0 -8 5 1 15 9 11
33 15 91 15 46 0 79 4 79 10 0 6 17 10 38 10 39 0 97 29 60 30 -38 0 -16 20
22 20 22 0 40 -4 40 -10 0 -18 22 -11 46 15 18 20 33 25 69 25 33 0 45 4 45
15 0 11 11 15 39 15 30 0 40 4 44 19 3 13 17 22 41 26 21 4 36 13 36 21 0 10
13 14 40 14 30 0 40 4 40 16 0 13 10 15 48 13 68 -4 112 8 112 32 0 19 28 26
84 20 10 0 30 11 44 26 24 26 26 26 32 8 7 -19 9 -18 38 13 16 17 38 32 49 32
10 0 27 7 37 15 11 8 28 13 38 9 10 -3 18 -1 18 5 0 6 -4 11 -10 11 -5 0 -10
4 -10 9 0 14 61 35 95 33 38 -2 21 6 -36 17 l-44 8 68 8 c49 5 71 4 82 -5 19
-16 20 -3 0 16 -8 8 -25 14 -37 13 -13 -1 -102 -1 -198 1 l-175 4 210 6 c208
6 237 11 306 49 9 5 22 5 30 0 23 -15 34 -10 13 6 -16 12 -16 14 -3 15 19 0
155 141 164 170 4 11 11 18 16 15 5 -3 6 2 2 11 -5 13 -3 15 7 9 8 -5 11 -4 7
2 -4 6 0 27 8 47 8 19 15 46 15 60 0 13 7 31 15 39 11 12 12 17 2 20 -16 6 -2
10 101 30 102 19 229 80 293 139 135 127 192 252 190 420 -1 143 -52 270 -148
369 l-44 46 50 33 c124 79 236 241 266 385 18 88 18 132 0 220 -30 141 -125
278 -241 347 l-53 32 65 39 c82 49 179 146 227 228 54 92 77 175 78 283 2 160
-40 270 -145 383 -66 71 -142 120 -236 153 -83 29 -243 32 -336 7 -34 -10 -65
-17 -68 -17 -3 0 -6 74 -6 164 l0 163 78 28 c275 99 454 231 531 395 32 69 35
84 39 185 3 93 1 120 -18 174 -55 163 -191 287 -357 324 -61 14 -186 15 -240
3 l-33 -8 0 364 c0 401 -5 443 -61 549 -38 70 -121 156 -187 192 -104 57 -111
57 -794 57 l-627 0 -47 30 c-76 48 -138 65 -239 65 -71 0 -100 -5 -137 -22
l-48 -22 -47 21 c-61 27 -189 34 -253 13z m-447 -369 c-73 -98 -94 -164 -102
-335 -8 -159 -11 -165 -125 -316 -127 -167 -155 -288 -119 -517 l6 -38 -210 0
c-165 0 -213 3 -229 14 -18 14 -19 32 -22 492 -2 417 -1 480 13 500 l15 24
305 0 305 0 0 53 0 52 -348 -5 c-377 -5 -368 -4 -398 -61 -12 -23 -14 -116
-14 -549 0 -564 -1 -547 55 -600 l27 -25 259 -3 259 -3 7 -27 c4 -15 7 -61 7
-102 -1 -131 -49 -199 -195 -275 l-84 -44 35 -14 c109 -46 283 -47 417 -2 118
40 206 111 257 209 26 49 30 48 40 -14 11 -63 64 -160 123 -222 55 -58 128
-118 143 -118 4 0 5 25 2 55 -5 58 4 125 16 125 5 0 14 -16 21 -36 17 -47 108
-137 204 -201 l78 -52 88 59 c97 66 187 154 197 194 3 14 10 26 14 26 13 0 33
-99 27 -136 -3 -19 -3 -34 -1 -34 30 0 171 134 212 201 29 48 62 144 62 183 1
29 3 28 30 -25 85 -165 274 -259 495 -246 89 6 189 29 200 47 3 5 -29 27 -72
49 -43 22 -87 48 -98 58 -86 76 -123 209 -89 326 5 16 28 17 292 17 268 0 288
1 328 21 31 15 48 32 63 63 20 41 21 58 21 557 0 548 0 544 -50 580 -23 17
-55 19 -408 21 l-382 3 0 -52 0 -53 348 0 c257 0 351 -3 360 -12 9 -9 12 -133
12 -497 0 -437 -2 -486 -17 -503 -15 -17 -37 -18 -281 -18 l-264 0 6 33 c17
83 18 223 2 292 -20 84 -41 123 -135 249 -101 136 -111 159 -111 283 0 164
-30 260 -111 363 -21 27 -39 51 -39 52 0 2 233 1 517 -2 511 -5 519 -5 559
-27 53 -28 108 -92 131 -152 16 -43 18 -122 21 -1158 l3 -1112 -43 -27 c-24
-15 -59 -43 -79 -61 l-36 -34 -2 478 c-3 510 -3 515 -54 561 -38 35 -83 42
-309 42 l-208 0 0 -50 0 -50 209 0 c207 0 210 0 238 -24 l28 -24 5 -514 5
-513 -32 -65 c-71 -147 -72 -313 -2 -469 29 -63 29 -66 29 -252 l0 -189 -45
-58 c-65 -84 -96 -167 -102 -278 -9 -153 23 -268 106 -371 41 -52 41 -53 41
-139 l0 -86 -43 -44 c-168 -170 -170 -489 -6 -659 26 -27 39 -50 39 -68 0 -36
-25 -83 -49 -97 -13 -7 -527 -10 -1573 -10 -1521 0 -1554 0 -1585 20 -21 13
-35 31 -42 57 -8 26 -11 618 -11 1881 l0 1844 29 29 29 29 166 0 166 0 0 49 0
50 -194 -4 c-213 -4 -223 -7 -259 -65 l-22 -35 0 -1895 0 -1896 26 -49 c15
-30 42 -62 67 -79 l42 -30 1588 0 1587 -1 46 27 c44 26 79 80 79 122 0 8 22 2
66 -21 37 -18 73 -33 80 -33 41 0 -13 -118 -81 -178 -89 -78 49 -72 -1766 -74
-1545 -2 -1627 -1 -1679 17 -101 33 -163 92 -200 192 -20 53 -20 79 -20 2654
0 2557 0 2600 20 2655 36 104 110 168 207 182 26 4 243 7 483 8 l436 0 -53
-70z m442 -55 c-21 -41 -77 -77 -150 -96 -74 -19 -106 -19 -131 -1 -18 14 -18
15 11 21 142 29 223 66 263 120 15 21 17 21 20 5 2 -10 -4 -32 -13 -49z m352
-33 c72 -77 151 -124 281 -164 86 -27 123 -44 152 -70 71 -65 110 -198 110
-384 0 -184 -37 -296 -116 -357 -35 -26 -37 -27 -50 -8 -27 39 -90 97 -124
115 -67 34 -142 41 -345 32 -176 -8 -194 -10 -241 -35 -28 -14 -72 -49 -97
-76 -25 -28 -49 -51 -54 -51 -20 0 -80 61 -101 103 -41 82 -55 176 -48 332 7
186 33 282 95 348 36 40 45 44 157 68 133 28 210 67 276 139 29 32 54 58 55
59 1 0 24 -22 50 -51z m-739 -750 c-5 -69 -34 -108 -81 -108 -28 0 -29 2 -23
33 4 17 25 70 48 116 l42 85 9 -35 c5 -19 7 -60 5 -91z m1453 7 c22 -43 39
-88 37 -99 -5 -32 -33 -30 -70 3 -32 29 -33 31 -36 123 -2 86 -2 92 13 73 9
-11 34 -56 56 -100z m1664 -282 c157 -83 192 -273 78 -418 -51 -65 -217 -162
-340 -200 l-23 -6 0 320 c0 296 1 320 18 325 9 2 64 4 122 2 84 -2 113 -6 145
-23z m-2467 -5 c51 -12 61 -11 163 19 11 3 30 -12 54 -41 36 -44 37 -47 21
-65 -9 -10 -40 -31 -69 -47 -43 -23 -64 -28 -122 -28 -75 -1 -122 17 -184 70
l-32 26 38 43 c27 32 44 42 58 39 11 -3 44 -10 73 -16z m-725 -116 c2 -71 -19
-122 -51 -122 -12 0 -14 10 -9 63 3 34 14 84 23 111 14 39 19 45 26 32 5 -10
10 -47 11 -84z m1587 -10 c12 -57 19 -106 16 -109 -9 -10 -35 5 -51 31 -20 29
-22 101 -5 151 7 20 13 35 15 33 2 -2 13 -50 25 -106z m-3137 -9 c55 -31 144
-121 183 -189 14 -24 38 -77 53 -117 l26 -72 5 -1915 c4 -1410 8 -1923 17
-1947 43 -120 143 -242 236 -290 121 -61 45 -57 1200 -63 l1058 -5 -73 -73
c-289 -288 -786 -467 -1263 -456 -300 7 -533 93 -648 239 -24 30 -62 93 -85
140 l-42 85 -78 -7 c-42 -3 -79 -7 -81 -9 -12 -11 34 -170 70 -244 74 -149
239 -289 415 -351 65 -23 238 -59 284 -59 35 0 38 -10 9 -35 -24 -22 -45 -22
-219 6 -151 24 -298 58 -405 95 -221 75 -549 252 -770 415 -132 98 -351 316
-418 416 -103 156 -181 359 -201 525 l-7 58 69 73 69 73 -58 344 c-57 339
-107 680 -129 874 -27 237 49 651 182 993 23 59 87 196 142 303 189 369 206
405 228 485 29 112 36 324 14 471 -29 199 -19 234 74 268 28 10 93 -5 143 -31z
m4855 -1278 c60 -33 110 -84 144 -147 20 -37 23 -57 23 -148 -1 -89 -4 -112
-24 -152 -121 -248 -528 -330 -748 -152 -27 22 -54 59 -75 101 -62 127 -37
267 63 357 51 46 128 82 299 143 85 30 104 34 180 31 71 -3 94 -9 138 -33z
m-660 -837 c28 -18 51 -37 49 -43 -2 -5 -29 -24 -60 -41 -32 -16 -63 -36 -69
-42 -7 -7 -14 -12 -17 -12 -4 0 -5 45 -3 101 l3 101 22 -16 c12 -9 46 -30 75
-48z m552 -204 c64 -20 138 -81 172 -140 75 -135 52 -297 -61 -413 -80 -83
-197 -136 -351 -161 -220 -35 -419 105 -437 308 -7 71 8 126 50 189 38 57 95
93 251 160 189 80 266 92 376 57z m-635 -853 c3 -5 1 -12 -5 -16 -5 -3 -10 1
-10 9 0 18 6 21 15 7z m552 -127 c129 -61 192 -218 149 -368 -21 -72 -94 -154
-170 -191 -83 -40 -210 -68 -286 -63 -187 14 -324 158 -307 323 12 122 66 172
277 260 185 77 241 84 337 39z m-5581 -814 c62 -260 259 -562 510 -781 380
-332 879 -580 1344 -669 63 -12 121 -24 128 -26 15 -4 -66 -94 -129 -144 l-36
-29 -139 34 c-265 64 -455 134 -679 249 -511 262 -938 647 -1090 981 -34 75
-89 251 -97 309 -2 23 10 41 77 107 90 88 81 91 111 -31z m3582 -895 c-15 -14
-33 -25 -40 -25 -6 0 3 11 22 25 19 14 36 25 39 25 3 0 -6 -11 -21 -25z m32
-10 c0 -2 -10 -10 -22 -16 -21 -11 -22 -11 -9 4 13 16 31 23 31 12z m-150 -60
c-6 -8 -20 -17 -31 -20 -11 -4 -17 -9 -15 -13 2 -4 -9 -7 -25 -8 -27 -1 -24 2
23 26 64 34 63 34 48 15z m-154 -87 c5 -8 2 -9 -9 -5 -22 8 -22 -2 1 -19 14
-11 12 -12 -16 -1 -30 11 -31 13 -15 24 21 16 30 16 39 1z m-74 -25 c-6 -2
-10 -8 -7 -13 3 -4 -5 -6 -17 -3 -19 4 -20 3 -8 -6 18 -13 1 -15 -19 -2 -10 6
-6 11 15 19 29 10 60 15 36 5z m63 -31 c-3 -3 -11 0 -18 7 -9 10 -8 11 6 5 10
-3 15 -9 12 -12z m-165 -7 c0 -6 -73 -25 -78 -20 -2 2 11 8 29 14 41 11 49 12
49 6z m-100 -35 c-8 -5 -24 -9 -35 -9 -16 1 -16 2 5 9 35 11 48 11 30 0z m50
-10 c-8 -5 -22 -9 -30 -9 -10 0 -8 3 5 9 27 12 43 12 25 0z m-113 -6 c-3 -3
-12 -4 -19 -1 -8 3 -5 6 6 6 11 1 17 -2 13 -5z m40 -10 c-3 -3 -12 -4 -19 -1
-8 3 -5 6 6 6 11 1 17 -2 13 -5z m-619 -237 c8 -9 4 -12 -18 -12 -16 -1 -26 3
-24 7 3 5 10 6 15 3 5 -4 9 -1 9 4 0 14 5 14 18 -2z m-57 -41 c-9 -11 -9 -15
1 -19 7 -2 9 -8 5 -13 -4 -5 -12 -2 -17 6 -6 9 -10 10 -10 3 0 -7 8 -16 17
-21 13 -8 10 -9 -14 -8 -18 1 -35 5 -40 9 -4 5 1 5 12 1 11 -4 17 -3 12 1 -4
5 3 19 15 32 23 25 38 32 19 9z"/>
<path d="M4920 5671 c-119 -14 -133 -40 -128 -241 3 -142 4 -150 28 -175 52
-55 48 -55 468 -55 387 0 389 0 422 23 66 44 70 58 72 212 2 158 -7 191 -65
222 -29 16 -68 18 -387 19 -195 1 -380 -1 -410 -5z m660 -228 l0 -33 -295 0
-295 0 0 33 0 32 295 0 295 0 0 -32z"/>
<path d="M4133 5656 c-57 -26 -65 -50 -61 -190 l3 -126 33 -32 32 -33 188 -3
c211 -3 237 3 280 68 22 32 23 43 20 147 -3 112 -3 113 -36 145 l-32 33 -198
2 c-152 2 -204 0 -229 -11z m367 -187 l0 -29 -145 0 c-80 0 -145 3 -145 8 0 4
-3 17 -6 29 -6 22 -6 22 137 25 79 2 147 2 152 0 4 -2 7 -16 7 -33z"/>
<path d="M6023 5655 c-50 -22 -63 -58 -63 -182 0 -99 2 -111 25 -145 36 -54
68 -60 287 -56 l187 3 30 29 c39 37 51 80 51 179 0 94 -17 139 -62 167 -30 18
-50 20 -228 20 -144 -1 -203 -4 -227 -15z m377 -180 l0 -35 -160 0 -160 0 0
30 0 29 108 4 c59 1 131 4 160 5 l52 2 0 -35z"/>
<path d="M4145 4936 c-16 -7 -39 -23 -50 -36 -19 -21 -20 -36 -20 -231 l0
-209 33 -32 32 -33 190 -3 c212 -4 246 4 281 62 17 27 19 53 19 211 0 278 -7
285 -280 285 -123 -1 -184 -5 -205 -14z m235 -226 l0 -110 25 0 c20 0 25 -5
25 -25 0 -25 -1 -25 -81 -25 -78 0 -80 1 -77 22 2 17 10 23 28 23 24 0 25 3
28 68 3 66 2 68 -20 65 -39 -5 -34 33 10 64 60 43 62 41 62 -82z"/>
<path d="M4846 4930 c-53 -34 -60 -60 -64 -238 -5 -187 6 -235 61 -274 32 -23
35 -23 432 -26 442 -3 442 -3 489 61 20 27 21 42 21 222 0 181 -1 195 -21 222
-39 53 -38 53 -479 53 -389 0 -411 -1 -439 -20z m265 -139 c31 -31 35 -51 19
-82 -8 -15 -7 -26 6 -48 14 -25 15 -32 3 -57 -27 -55 -139 -67 -179 -19 -25
30 15 46 63 24 18 -8 30 -8 46 0 41 23 14 61 -43 61 -19 0 -26 5 -26 20 0 14
7 20 24 20 37 0 56 10 56 30 0 28 -14 32 -64 18 -50 -13 -66 -6 -50 20 31 48
103 55 145 13z m457 13 c36 -25 46 -51 31 -85 -9 -23 -9 -33 0 -42 15 -15 13
-68 -3 -90 -18 -23 -70 -38 -109 -30 -41 8 -57 20 -57 45 0 21 10 21 76 2 25
-7 57 20 52 45 -2 10 -17 18 -43 21 -52 7 -54 31 -2 43 26 6 37 14 37 27 0 28
-14 32 -65 19 -50 -13 -65 -7 -49 19 25 40 93 54 132 26z m-198 -185 l0 -32
-79 6 c-92 6 -101 10 -94 37 5 18 14 20 89 20 l84 0 0 -31z"/>
<path d="M6033 4935 c-18 -8 -42 -29 -53 -47 -18 -30 -20 -50 -20 -212 0 -162
2 -182 21 -215 35 -63 45 -66 244 -69 200 -4 236 2 280 48 l30 31 3 184 c4
211 -3 237 -67 273 -36 20 -52 22 -222 22 -135 -1 -193 -5 -216 -15z m328
-174 c25 -25 29 -37 29 -81 0 -44 -4 -56 -29 -81 -29 -28 -32 -29 -134 -29
-86 0 -106 3 -111 16 -11 29 -6 34 39 34 l45 0 0 60 0 60 -45 0 c-41 0 -45 2
-45 25 l0 25 111 0 c109 0 111 0 140 -29z"/>
<path d="M6250 4680 c0 -68 1 -70 25 -70 14 0 37 12 52 26 20 20 24 31 19 56
-9 44 -24 58 -62 58 l-34 0 0 -70z"/>
<path d="M6033 4135 c-18 -8 -42 -29 -53 -47 -19 -32 -20 -49 -20 -677 l0
-645 23 -33 c37 -54 75 -63 269 -63 151 0 177 2 213 20 79 38 75 -2 75 718 l0
639 -23 34 c-41 62 -69 69 -272 69 -132 -1 -189 -5 -212 -15z m247 -670 l0
-115 50 0 c47 0 50 -2 50 -25 0 -23 -3 -25 -50 -25 l-50 0 0 -80 c0 -78 -1
-80 -24 -80 -30 0 -36 16 -36 95 l0 64 -52 3 c-49 3 -53 5 -53 28 0 24 3 25
55 25 l55 1 -2 103 c-1 57 0 108 3 112 3 5 16 9 30 9 l24 0 0 -115z"/>
<path d="M4124 4091 c-51 -31 -56 -56 -52 -279 l3 -202 33 -32 32 -33 198 -3
c193 -3 198 -3 232 20 56 38 60 53 60 261 0 290 3 287 -282 287 -171 0 -196
-2 -224 -19z m294 -259 l3 -132 -26 0 c-25 0 -25 0 -25 92 l0 92 -34 -33 c-34
-33 -66 -37 -66 -9 1 23 108 130 127 126 16 -3 18 -18 21 -136z"/>
<path d="M4844 4091 c-52 -32 -59 -65 -59 -271 0 -206 4 -221 68 -260 30 -19
53 -20 432 -20 379 0 402 1 432 20 64 39 68 53 68 270 0 175 -2 198 -19 223
-39 57 -39 57 -483 57 -382 0 -410 -1 -439 -19z m274 -157 c25 -28 27 -46 11
-75 -8 -16 -7 -25 7 -40 13 -15 15 -26 8 -51 -18 -65 -128 -88 -178 -39 -30
31 -10 46 43 31 47 -12 81 -1 81 29 0 21 -19 31 -57 31 -31 0 -28 34 4 38 28
4 45 25 37 47 -5 12 -13 15 -33 10 -70 -17 -81 -17 -81 -2 0 9 12 25 27 37 37
29 98 21 131 -16z m470 3 c18 -17 22 -29 18 -52 -8 -38 -8 -42 0 -83 15 -76
-57 -119 -143 -87 -31 12 -43 22 -41 34 4 17 23 19 74 7 23 -5 36 -3 48 10 26
25 16 48 -24 54 -38 5 -58 40 -23 40 11 0 28 6 39 14 18 14 18 16 3 31 -13 13
-21 15 -37 6 -29 -15 -72 -14 -72 2 0 15 26 41 50 50 26 10 84 -4 108 -26z
m-214 -133 c4 -15 5 -29 2 -31 -3 -3 -44 -2 -91 2 -81 6 -85 8 -85 31 0 23 2
24 84 24 82 0 84 -1 90 -26z"/>
<path d="M4134 3253 c-59 -29 -64 -49 -64 -273 0 -223 5 -245 63 -280 29 -18
51 -20 216 -20 278 0 281 3 281 302 0 286 -2 288 -287 287 -140 0 -185 -4
-209 -16z m306 -162 c0 -16 -10 -21 -55 -26 -45 -6 -55 -11 -55 -26 0 -16 8
-19 44 -19 35 0 48 -5 60 -22 18 -25 21 -80 6 -108 -14 -27 -67 -41 -125 -32
-42 6 -51 11 -53 30 -4 23 -2 23 52 17 61 -8 86 3 86 36 0 24 -30 39 -79 39
l-41 0 0 65 0 65 80 0 c72 0 80 -2 80 -19z"/>
<path d="M4839 3247 c-53 -36 -61 -74 -57 -282 3 -167 5 -183 26 -216 41 -67
54 -69 485 -69 421 0 425 1 471 63 20 27 21 42 21 235 0 202 -1 208 -24 240
-13 18 -34 38 -48 43 -13 5 -205 9 -432 9 l-408 0 -34 -23z m277 -148 c26 -24
30 -49 14 -79 -7 -13 -6 -21 5 -30 23 -19 18 -65 -9 -97 -21 -24 -31 -28 -80
-28 -44 0 -60 5 -78 23 -20 19 -21 24 -8 32 8 6 26 7 40 4 44 -12 72 -10 83 7
18 28 1 49 -38 49 -29 0 -36 4 -33 17 2 10 18 21 36 27 21 6 32 15 32 28 0 26
-20 31 -61 15 -40 -17 -59 -13 -59 14 0 48 110 62 156 18z m470 0 c40 -38 33
-84 -21 -136 -25 -23 -45 -45 -45 -49 0 -3 19 -4 43 -2 41 3 43 1 39 -32 -1
-6 -40 -10 -92 -10 -119 0 -120 9 -14 96 51 42 67 66 58 88 -11 29 -44 30 -75
0 -24 -23 -31 -25 -44 -14 -8 7 -15 18 -15 24 0 14 37 50 60 59 27 11 82 -2
106 -24z m-216 -129 l0 -30 -90 0 c-89 0 -90 0 -90 25 0 23 4 24 63 28 34 2
74 4 90 5 24 2 27 -1 27 -28z"/>
<path d="M4942 7407 c-58 -22 -100 -75 -73 -91 5 -3 26 2 47 11 28 12 67 17
134 18 105 0 119 10 68 48 -34 25 -127 32 -176 14z"/>
<path d="M5460 7404 c-36 -16 -50 -30 -50 -53 0 -11 15 -12 74 -6 81 7 139 -4
178 -35 28 -21 38 -18 38 15 0 24 -30 55 -77 79 -40 20 -117 20 -163 0z"/>
<path d="M4966 7264 c-19 -18 -21 -75 -4 -92 18 -18 73 -14 91 6 50 55 -35
139 -87 86z"/>
<path d="M5506 7258 c-9 -12 -16 -32 -16 -44 0 -57 91 -73 119 -22 14 25 14
29 -5 55 -28 37 -76 43 -98 11z"/>
<path d="M7255 2090 c-10 -11 -14 -20 -9 -20 5 0 15 9 22 20 7 11 11 20 9 20
-2 0 -12 -9 -22 -20z"/>
<path d="M7170 2020 c8 -5 20 -10 25 -10 6 0 3 5 -5 10 -8 5 -19 10 -25 10 -5
0 -3 -5 5 -10z"/>
<path d="M7100 1996 c7 -7 13 -7 20 0 6 6 3 10 -10 10 -13 0 -16 -4 -10 -10z"/>
<path d="M6973 1943 c9 -2 23 -2 30 0 6 3 -1 5 -18 5 -16 0 -22 -2 -12 -5z"/>
<path d="M5286 1323 c-11 -11 -6 -23 8 -23 8 0 17 4 20 9 7 10 -19 23 -28 14z"/>
<path d="M4220 821 c0 -5 5 -13 10 -16 6 -3 10 -2 10 4 0 5 -4 13 -10 16 -5 3
-10 2 -10 -4z"/>
<path d="M4180 810 c-12 -7 -10 -9 7 -7 12 0 19 5 17 9 -6 10 -6 10 -24 -2z"/>
<path d="M4141 767 c-13 -21 -12 -21 5 -5 10 10 16 20 13 22 -3 3 -11 -5 -18
-17z"/>
<path d="M4049 683 c-17 -20 -18 -23 -3 -10 11 9 23 15 26 12 2 -3 5 2 5 10 0
19 1 20 -28 -12z"/>
</g>
</svg>
